<svg width="17" height="24" viewBox="0 0 17 24" fill="none" xmlns="http://www.w3.org/2000/svg">
<path fill-rule="evenodd" clip-rule="evenodd" d="M8.00002 0C10.4853 0 12.5 2.01472 12.5 4.5V11.5C12.5 13.9853 10.4853 16 8.00002 16C5.51474 16 3.50002 13.9853 3.50002 11.5V4.5C3.50002 2.01472 5.51474 0 8.00002 0ZM0.750024 10.3284C1.04826 10.3284 1.29567 10.546 1.34217 10.831L1.35002 10.9284V11.0603C1.35002 14.8004 4.32952 17.8284 8.00002 17.8284C11.5924 17.8284 14.5229 14.9278 14.646 11.2981L14.65 11.0603V10.9388C14.65 10.6074 14.9187 10.3388 15.25 10.3388C15.5483 10.3388 15.7957 10.5564 15.8422 10.8415L15.85 10.9388L15.8463 11.3084C15.7233 15.3891 12.5766 18.7005 8.59989 19.0055L8.60002 22.5C8.60002 22.8314 8.3314 23.1 8.00002 23.1C7.70179 23.1 7.45438 22.8824 7.40788 22.5973L7.40002 22.5L7.40049 19.0055C3.42611 18.7009 0.280723 15.3934 0.153995 11.3161L0.150024 10.9284C0.150024 10.597 0.418654 10.3284 0.750024 10.3284ZM4.70002 4.5C4.70002 2.67746 6.17748 1.2 8.00002 1.2C9.82256 1.2 11.3 2.67746 11.3 4.5V11.5C11.3 13.3225 9.82256 14.8 8.00002 14.8C6.17748 14.8 4.70002 13.3225 4.70002 11.5V4.5Z" fill="#007AFF"/>
</svg>
