<svg width="16" height="16" viewBox="0 0 16 16" fill="none" xmlns="http://www.w3.org/2000/svg">
<path d="M8 6C6.916 6 6 6.916 6 8C6 9.084 6.916 10 8 10C9.084 10 10 9.084 10 8C10 6.916 9.084 6 8 6Z" fill="black"/>
<path d="M13.3333 3.33325H11.6093L9.80467 1.52859C9.67967 1.40355 9.51013 1.33329 9.33334 1.33325H6.66667C6.48987 1.33329 6.32033 1.40355 6.19534 1.52859L4.39067 3.33325H2.66667C1.93134 3.33325 1.33334 3.93125 1.33334 4.66659V11.9999C1.33334 12.7353 1.93134 13.3333 2.66667 13.3333H13.3333C14.0687 13.3333 14.6667 12.7353 14.6667 11.9999V4.66659C14.6667 3.93125 14.0687 3.33325 13.3333 3.33325ZM8 11.3333C6.19334 11.3333 4.66667 9.80659 4.66667 7.99992C4.66667 6.19325 6.19334 4.66659 8 4.66659C9.80667 4.66659 11.3333 6.19325 11.3333 7.99992C11.3333 9.80659 9.80667 11.3333 8 11.3333Z" fill="black"/>
</svg>
